<?xml version="1.0" encoding="utf-8"?>
<!DOCTYPE svg PUBLIC "-//W3C//DTD SVG 1.1//EN" "http://www.w3.org/Graphics/SVG/1.1/DTD/svg11.dtd">
<svg version="1.1" id="Layer_1" xmlns="http://www.w3.org/2000/svg" xmlns:xlink="http://www.w3.org/1999/xlink" width="100%" height="100%" xml:space="preserve">
<g>

		<path id="path3003" d="m 184.33333,598.36218 c 0,8.65246 -11.34212,15.66667 -25.33333,15.66667 -13.99121,0 -25.33333,-7.01421 -25.33333,-15.66667 0,-8.65246 11.34212,-15.66666 25.33333,-15.66666 13.14097,0 24.10029,6.21394 25.23818,14.31007" style="fill:#840000;stroke:#C9CEC9;stroke-width:1;" />
        <path id="path3003-1" d="m 291,598.02885 c 0,8.65246 -11.34212,15.66667 -25.33333,15.66667 -13.99121,0 -25.33333,-7.01421 -25.33333,-15.66667 0,-8.65246 11.34212,-15.66666 25.33333,-15.66666 13.14097,0 24.10029,6.21394 25.23818,14.31007" style="fill:#840000;stroke:#C9CEC9;stroke-width:1;" />
        <rect style="fill:#840000;stroke:#C9CEC9;" id="rect3025" width="153.26433" height="33.930988" x="135.36784" y="501.06335"/>
        
        <path style="fill:#840000;stroke:#C9CEC9;stroke-width:1;" id="rect3055" d="m 183.6053,376.63422 51.45603,0 0,78.78936 -51.45603,0 z"/> 
		<path d="m 235.68042,374.69551 c 0,4.42588 -11.79599,8.01377 -26.34709,8.01377 -14.5511,0 -26.34709,-3.58789 -26.34709,-8.01377 0,-4.42588 11.79599,-8.01376 26.34709,-8.01376 13.66683,0 25.06471,3.17854 26.24814,7.31985" style="fill:#840000;stroke:#C9CEC9;stroke-width:1;" />
        <path d="m 235.46613,456.29075 c 0,4.42588 -11.79599,8.01377 -26.34709,8.01377 -14.5511,0 -26.34709,-3.58789 -26.34709,-8.01377 0,-4.42588 11.79599,-8.01376 26.34709,-8.01376 13.66683,0 25.06471,3.17854 26.24814,7.31985" style="fill:#840000;stroke:#C9CEC9;stroke-width:1;" />
        
        <rect style="fill:#840000;stroke:#C9CEC9;stroke-width:1;" id="rect3075" width="93.644089" height="42.977432" x="-2.1553831" y="389.87341"/>
        <rect style="fill:#840000;stroke:#C9CEC9;stroke-width:1;" id="rect3077" width="88.609543" height="43.276211" x="76.3619" y="252.39078"/>
        <rect style="fill:#840000;stroke:#C9CEC9;stroke-width:1;" id="rect3077-4" width="88.609543" height="43.276211" x="276.36188" y="251.0574"/>
        <rect style="fill:#840000;stroke:#C9CEC9;stroke-width:1;" id="rect3055-0" width="51.456032" height="78.78936" x="197.60532" y="107.46753"/>
        <path d="m 249.68043,106.52882 c 0,4.42588 -11.79599,8.01377 -26.34709,8.01377 -14.5511,0 -26.34709,-3.58789 -26.34709,-8.01377 0,-4.42588 11.79599,-8.01376 26.34709,-8.01376 13.66683,0 25.06471,3.17854 26.24814,7.31984" style="fill:#840000;stroke:#C9CEC9;stroke-width:1;" />
        <path d="m 249.96613,188.62408 c 0,4.42588 -11.79599,8.01377 -26.34709,8.01377 -14.5511,0 -26.34709,-3.58789 -26.34709,-8.01377 0,-4.42588 11.79599,-8.01376 26.34709,-8.01376 13.66683,0 25.06471,3.17854 26.24814,7.31984" style="fill:#840000;stroke:#C9CEC9;stroke-width:1;"/>
        <rect style="fill:#840000;stroke:#C9CEC9;stroke-width:1;" id="rect3077-4-4" width="88.609543" height="43.276211" x="383.02859" y="123.05743"/>
        <path id="path3003-82" d="m 631.33333,114.02885 c 0,8.65246 -11.34212,15.66667 -25.33333,15.66667 -13.99121,0 -25.33333,-7.01421 -25.33333,-15.66667 0,-8.65246 11.34212,-15.66666 25.33333,-15.66666 13.14097,0 24.10029,6.21394 25.23818,14.31007" style="fill:#840000;stroke:#C9CEC9;stroke-width:1;" />
        <path id="path3003-4" d="m 632.66666,180.69551 c 0,8.65246 -11.34212,15.66667 -25.33333,15.66667 -13.99121,0 -25.33333,-7.01421 -25.33333,-15.66667 0,-8.65246 11.34212,-15.66666 25.33333,-15.66666 13.14097,0 24.10029,6.21394 25.23818,14.31007" style="fill:#840000;stroke:#C9CEC9;stroke-width:1;" />
        <path id="path3003-8" d="m 633.66666,244.69551 c 0,8.65246 -11.34212,15.66667 -25.33333,15.66667 -13.99121,0 -25.33333,-7.01421 -25.33333,-15.66667 0,-8.65246 11.34212,-15.66666 25.33333,-15.66666 13.14097,0 24.10029,6.21394 25.23818,14.31007" style="fill:#840000;stroke:#C9CEC9;stroke-width:1;" />
       
        <path style="fill:none;stroke:#C9CEC9;stroke-width:3;" d="m 158.61904,583.29075 0,-20.66666 50.33333,0 0,-24" id="psc" />
        <path style="fill:none;stroke:#C9CEC9;stroke-width:3;" d="m 266.28571,583.29076 0,-20.66667 -56,0 0,-24" id="plc" />
        <path style="fill:none;stroke:#C9CEC9;stroke-width:3;" d="m 209.62457,502.28523 0.32228,-36.65561" id="pacc" />
        <path style="fill:none;stroke:#C9CEC9;stroke-width:3;" d="m 91,411.95743 90,0" id="pcloud" />
        <path style="fill:none;stroke:#C9CEC9;stroke-width:3;" d="m 208.61904,366.95742 0,-27 -84.66667,0 -0.33333,-42" id="preadDt"/>
        <path style="fill:none;stroke:#C9CEC9;stroke-width:3;" d="m 121.28571,252.95742 0,-102 74,0" id="pqfDeal" />
        <path style="fill:none;stroke:#C9CEC9;stroke-width:3;" d="m 276.95237,274.62409 -111,0" id="ppulish" />
        <path style="fill:none;stroke:#C9CEC9;stroke-width:3;" d="m 224.30673,195.64511 0,25.64762 95.62463,0 0,28" id="pappMg" />
        <path style="fill:none;stroke:#C9CEC9;stroke-width:3;" d="m 248.28571,147.29075 132,0.66667" id="ppackage" />
        <path style="fill:none;stroke:#C9CEC9;stroke-width:3;" d="m 472.28571,144.29076 59,0 -0.33334,-30 47,-0.33334" id="pspt" />
        <path style="fill:none;stroke:#C9CEC9;stroke-width:3;" d="m 471.95237,145.29075 59.33334,0 0,34 47,0" id="pty" />
        <path style="fill:none;stroke:#C9CEC9;stroke-width:3;" d="m 472.61101,146.28273 58.34177,0 -1.00015,100.34939 49,0" id="ptc" />
        
        <path d="m 209.3682,535.42045 4.23225,3.85171 -7.85172,0.11112 z" style="fill:#C9CEC9;stroke:#C9CEC9;stroke-width:1" />
      	<path d="m 209.7571,464.53156 4.23225,3.85171 -7.85172,0.11112 z" style="fill:#C9CEC9;stroke:#C9CEC9;stroke-width:1" />
      	<path d="m 182.15602,411.65103 -3.85172,4.23225 -0.11112,-7.85172 z" style="fill:#C9CEC9;stroke:#C9CEC9;stroke-width:1" />
      	<path d="m 123.42377,296.08712 4.23225,3.85171 -7.85172,0.11112 z" style="fill:#C9CEC9;stroke:#C9CEC9;stroke-width:1" />
      	<path d="m 197.48934,150.53992 -3.85171,4.23225 -0.11112,-7.85172 z" style="fill:#C9CEC9;stroke:#C9CEC9;stroke-width:1" />
      	<path d="m 165.19317,274.93048 3.85171,-4.23225 0.11113,7.85172 z" style="fill:#C9CEC9;stroke:#C9CEC9;stroke-width:1" />
      	<path d="m 319.70321,250.49439 -4.23225,-3.85171 7.85172,-0.11112 z" style="fill:#C9CEC9;stroke:#C9CEC9;stroke-width:1" />
      	<path d="m 382.48936,147.53992 -3.85171,4.23225 -0.11112,-7.85172 z" style="fill:#C9CEC9;stroke:#C9CEC9;stroke-width:1" />
      	<path d="m 579.48934,113.87325 -3.85171,4.23225 -0.11112,-7.85172 z" style="fill:#C9CEC9;stroke:#C9CEC9;stroke-width:1" />
      	<path d="m 581.26712,179.20659 -3.85171,4.23225 -0.11112,-7.85172 z" style="fill:#C9CEC9;stroke:#C9CEC9;stroke-width:1" />
      	<path d="m 582.26714,246.65103 -3.85171,4.23225 -0.11113,-7.85172 z" style="fill:#C9CEC9;stroke:#C9CEC9;stroke-width:1" />

		<text style="font-size:10px;fill:#FFFFFF;" x="150.46992" y="602.1955"><tspan x="150.46992" y="602.1955">SC</tspan></text>
		<text style="font-size:10px;fill:#FFFFFF;" x="259.46991" y="602.1955"><tspan x="259.46991" y="602.1955">LC</tspan></text>
		<text style="font-size:10px;fill:#FFFFFF;" x="283.46991" y="566.1955"><tspan x="283.46991" y="566.1955">异步上传/异步应答</tspan></text>
		<text style="font-size:10px;fill:#FFFFFF;" x="161.46992" y="521.1955"><tspan x="161.46992" y="521.1955">ACC/MCC综合前置</tspan></text>
		<text style="font-size:10px;fill:#FFFFFF;" x="191.46992" y="414.19553"><tspan x="191.46992" y="414.19553">前置数</tspan><tspan x="191.46992" y="429.19553" id="tspan3105">据库</tspan></text>
		<text style="font-size:10px;fill:#FFFFFF;" x="25.469925" y="414.19553"><tspan x="25.469925" y="414.19553">云更新</tspan></text>
		<text style="font-size:10px;fill:#FFFFFF;" x="254.46992" y="485.19553"><tspan x="254.46992" y="485.19553">交易入库</tspan></text>
		<text style="font-size:10px;fill:#FFFFFF;" x="121.46992" y="402.19553"><tspan x="121.46992" y="402.19553">云更新</tspan></text>
		<text style="font-size:10px;fill:#FFFFFF;" x="95.469925" y="277.19553"><tspan x="95.469925" y="277.19553">账务处理</tspan></text>
		<text style="font-size:10px;fill:#FFFFFF;" x="155.46992" y="329.19553"><tspan x="155.46992" y="329.19553">读取数据</tspan></text>
		<text style="font-size:10px;fill:#FFFFFF;" x="297.46991" y="278.19553"><tspan x="297.46991" y="278.19553">应用管理</tspan></text>
		<text style="font-size:10px;fill:#FFFFFF;" x="200.46992" y="264.19553"><tspan x="200.46992" y="264.19553">段分发</tspan></text>
		<text style="font-size:10px;fill:#FFFFFF;" x="120.46992" y="143.19553"><tspan x="120.46992" y="143.19553">清分处理</tspan></text>
		<text style="font-size:10px;fill:#FFFFFF;" x="207.46992" y="139.19553"><tspan x="207.46992" y="139.19553">账务数</tspan><tspan x="207.46992" y="154.19553" id="tspan3143">据库</tspan></text>
		<text style="font-size:10px;fill:#FFFFFF;" x="290.46991" y="139.19553"><tspan x="290.46991" y="139.19553">打包转发</tspan></text>
		<text style="font-size:10px;fill:#FFFFFF;" x="391.46991" y="147.19553"><tspan x="391.46991" y="147.19553">清分对外前置</tspan></text>
		<text style="font-size:10px;fill:#FFFFFF;" x="479.46991" y="137.19553"><tspan x="479.46991" y="137.19553">打包转发</tspan></text>
		<text style="font-size:10px;fill:#FFFFFF;" x="588.46991" y="117.19553"><tspan x="588.46991" y="117.19553">交通卡</tspan></text>
		<text style="font-size:10px;fill:#FFFFFF;" x="594.46991" y="184.19553"><tspan x="594.46991" y="184.19553">通银</tspan></text>
		<text style="font-size:10px;fill:#FFFFFF;" x="596.46991" y="249.19553"><tspan x="596.46991" y="249.19553">通畅</tspan></text>






		<path id="path3003-48" d="m 882.08897,596.19551 c 0,8.65246 -11.34212,15.66667 -25.33333,15.66667 -13.99121,0 -25.33333,-7.01421 -25.33333,-15.66667 0,-8.65246 11.34212,-15.66666 25.33333,-15.66666 13.14097,0 24.10029,6.21394 25.23818,14.31007" style="fill:#840000;stroke:#C9CEC9;stroke-width:1" />
        <path id="path3003-48-8" d="m 1079.589,595.52884 c 0,8.65246 -11.3422,15.66667 -25.3334,15.66667 -13.9912,0 -25.3333,-7.01421 -25.3333,-15.66667 0,-8.65246 11.3421,-15.66666 25.3333,-15.66666 13.141,0 24.1003,6.21394 25.2382,14.31007" style="fill:#840000;stroke:#C9CEC9;stroke-width:1" />
        <rect style="fill:#840000;stroke:#C9CEC9;stroke-width:1" id="rect3075-2" width="93.644089" height="42.977432" x="810.26691" y="437.37347" />
        <rect style="fill:#840000;stroke:#C9CEC9;stroke-width:1" id="rect3075-4" width="93.644089" height="42.977432" x="1007.9336" y="436.04016" />
        <rect style="fill:#840000;stroke:#C9CEC9;stroke-width:1" id="rect3075-2-5" width="93.644089" height="42.977432" x="668.93359" y="437.70682" />
        <rect style="fill:#840000;stroke:#C9CEC9;stroke-width:1" id="rect3055-0-5" width="51.456032" height="78.78936" x="929.88477" y="223.08661" />
        <path d="m 981.95988,222.14789 c 0,4.42588 -11.79599,8.01377 -26.34709,8.01377 -14.5511,0 -26.34709,-3.58789 -26.34709,-8.01377 0,-4.42588 11.79599,-8.01376 26.34709,-8.01376 13.66683,0 25.06471,3.17854 26.24814,7.31984" style="fill:#840000;stroke:#C9CEC9;stroke-width:1" id="path3000-1" />
        <path d="m 982.24558,304.24314 c 0,4.42588 -11.79599,8.01377 -26.34709,8.01377 -14.5511,0 -26.34709,-3.58789 -26.34709,-8.01377 0,-4.42588 11.79599,-8.01376 26.34709,-8.01376 13.66683,0 25.06471,3.17854 26.24814,7.31984" style="fill:#840000;stroke:#C9CEC9;stroke-width:1" id="path3002-7" />

        <path style="fill:none;stroke:#C9CEC9;stroke-width:3px;" d="m 1055.0889,580.36218 0,-98" id="pftp"/>
        <path style="fill:none;stroke:#C9CEC9;stroke-width:3px;" d="m 1056.5846,436.52457 0,-175.99144 -72,0" id="pdatabase"/>
  		<path style="fill:none;stroke:#C9CEC9;stroke-width:3px;" d="m 857.25564,580.36219 0,-97" id="phttp"/>
  		<path style="fill:none;stroke:#C9CEC9;stroke-width:3px;" d="m 857.75751,437.86032 0,-177.8296 68,0" id="ppw"/>
  		<path style="fill:none;stroke:#C9CEC9;stroke-width:3px;" d="m 713.75845,438.35938 0,-178.49438 213,0" id="prunqian"/>
        <path style="fill:none;stroke:#C9CEC9;stroke-width:3px;" d="m 809.25564,457.36219 -45,0"/>
        
		<path style="fill:#C9CEC9;stroke:#C9CEC9;stroke-width:1" d="m 857.28258,481.54743 4.23225,3.85171 -7.85172,0.11112 z"/>
        <path style="fill:#C9CEC9;stroke:#C9CEC9;stroke-width:1" d="m 763.10754,457.50192 3.85172,-4.23225 0.11112,7.85172 z"/>
        <path style="fill:#C9CEC9;stroke:#C9CEC9;stroke-width:1" d="m 928.40372,259.55579 -3.85171,4.23225 -0.11112,-7.85172 z"/>
        <path style="fill:#C9CEC9;stroke:#C9CEC9;stroke-width:1" d="m 1054.7825,480.2141 4.2323,3.85171 -7.8518,0.11112 z"/>
        <path style="fill:#C9CEC9;stroke:#C9CEC9;stroke-width:1" d="m 982.10755,260.83524 3.85172,-4.23225 0.11112,7.85172 z"/>
        
        <text style="font-size:10px;fill:#FFFFFF;" x="839.75562" y="600.1955"><tspan x="839.75562" y="600.1955">客户端</tspan></text>
	    <text style="font-size:10px;fill:#FFFFFF;" x="1046.7556" y="599.1955"><tspan x="1046.7556" y="599.1955">SC</tspan></text>
	    <text style="font-size:10px;fill:#FFFFFF;" x="868.75562" y="543.1955"><tspan x="868.75562" y="543.1955">HTTP</tspan></text>
	    <text style="font-size:10px;fill:#FFFFFF;" x="1070.7556" y="543.1955"><tspan x="1070.7556" y="543.1955">FTP</tspan></text>
	    <text style="font-size:10px;fill:#FFFFFF;" x="822.75562" y="458.19553"><tspan x="822.75562" y="458.19553">票务管理平台</tspan><tspan x="822.75562" y="473.20615">Tomcat</tspan></text>
	    <text style="font-size:10px;fill:#FFFFFF;" x="690.75562" y="461.19553"><tspan x="690.75562" y="461.19553">润乾报表</tspan></text>
	    <text style="font-size:10px;fill:#FFFFFF;" x="1029.7556" y="462.19553"><tspan x="1029.7556" y="462.19553">数据采集</tspan></text>
	    <text style="font-size:10px;fill:#FFFFFF;" x="937.75562" y="264.19553"><tspan x="937.75562" y="264.19553">数据库</tspan></text>
				
</g>
</svg>