<?xml version="1.0" standalone="no"?>
<!DOCTYPE svg PUBLIC "-//W3C//DTD SVG 1.1//EN" "http://www.w3.org/Graphics/SVG/1.1/DTD/svg11.dtd" >
<svg xmlns="http://www.w3.org/2000/svg" xmlns:xlink="http://www.w3.org/1999/xlink" version="1.1">
<metadata>
Created by FontForge 20160405 at Mon Jan 14 04:30:18 2019
 By www-data
Created by Sizenko Alexander. (c) 2008 Style-7. All rights reserved. http://www.styleseven.com
</metadata>
<defs>
<font id="Digital-7Italic" horiz-adv-x="520" >
  <font-face 
    font-family="Digital-7 Italic"
    font-weight="400"
    font-style="italic"
    font-stretch="normal"
    units-per-em="1100"
    panose-1="2 0 0 0 0 0 0 0 0 0"
    ascent="880"
    descent="-220"
    x-height="710"
    cap-height="720"
    bbox="6 -120 561 840"
    underline-thickness="70"
    underline-position="-225"
    unicode-range="U+0020-2030"
  />
<missing-glyph horiz-adv-x="580" 
d="M424 0h-360q-39 10 -45 50l83 30h300zM458 640h-299l-77 30q14 40 55 50h359zM104 100l-83 -30l58 580l77 -30zM499 50q-14 -40 -55 -50l-22 80l56 560l38 80q39 -10 45 -50z" />
    <glyph glyph-name=".notdef" horiz-adv-x="580" 
d="M424 0h-360q-39 10 -45 50l83 30h300zM458 640h-299l-77 30q14 40 55 50h359zM104 100l-83 -30l58 580l77 -30zM499 50q-14 -40 -55 -50l-22 80l56 560l38 80q39 -10 45 -50z" />
    <glyph glyph-name=".null" horiz-adv-x="0" 
 />
    <glyph glyph-name="nonmarkingreturn" horiz-adv-x="500" 
 />
    <glyph glyph-name="space" unicode=" " horiz-adv-x="300" 
 />
    <glyph glyph-name="exclam" unicode="!" horiz-adv-x="180" 
d="M109 350l18 -20l-17 -170h-80l13 130zM57 430l21 210l38 80q39 -10 45 -50l-28 -280l-22 -20zM94 0h-80l8 80h80z" />
    <glyph glyph-name="quotedbl" unicode="&#x22;" horiz-adv-x="341" 
d="M150 560l-44 -40l-36 40l16 160h80zM311 561l-44 -40l-36 40l16 160h80z" />
    <glyph glyph-name="numbersign" unicode="#" horiz-adv-x="540" 
d="M302 480l36 -40l-44 -40h-40l-36 40l44 40h40zM286 320l36 -40l-44 -40h-40l-36 40l44 40h40zM152 380l44 40l36 -40l-4 -40l-44 -40l-36 40zM312 380l44 40l36 -40l-4 -40l-44 -40l-36 40zM170 560l44 40l36 -40l-6 -60l-44 -40l-36 40zM330 560l44 40l36 -40l-6 -60
l-44 -40l-36 40zM296 221l44 40l36 -40l-6 -61l-44 -40l-36 40zM136 220l44 40l36 -40l-6 -61l-44 -40l-36 40zM126 320l36 -40l-44 -40h-40l-36 40l44 40h40zM446 319l36 -40l-44 -40h-40l-36 40l44 40h40zM462 480l36 -40l-44 -40h-40l-36 40l44 40h40zM142 479l36 -40
l-44 -40h-40l-36 40l44 40h40z" />
    <glyph glyph-name="dollar" unicode="$" 
d="M394 400l36 -40l-44 -40h-260l-36 40l44 40h260zM449 350l18 -20l-28 -280q-14 -40 -55 -50l-22 80l21 210zM364 0h-300q-39 10 -45 50l83 30h240zM156 620l-19 -190l-66 -60l-18 20l26 260zM159 640l-77 30q14 40 55 50h319q39 -10 45 -50l-83 -30h-259zM269 750l5 50
l44 40l36 -40l-5 -50h-80zM237 430l18 180h80l-18 -180h-80zM205 110l18 180h80l-18 -180h-80zM271 -30l-5 -50l-44 -40l-36 40l5 50h80z" />
    <glyph glyph-name="percent" unicode="%" horiz-adv-x="600" 
d="M323 478l143 242q60 0 76 -40l-185 -310h-45zM277 242l-143 -242q-60 0 -76 40l185 310h45zM218 640h-60l-77 30q14 40 55 50h120zM156 620l-6 -60l-38 -80q-39 10 -45 50l12 120zM170 560h60l77 -30q-14 -40 -55 -50h-120zM232 580l6 60l38 80q39 -10 45 -50l-12 -120z
M444 100l6 60l38 80q39 -10 45 -50l-12 -120zM430 160h-60l-77 30q14 40 55 50h120zM368 140l-6 -60l-38 -80q-39 10 -45 50l12 120zM382 80h60l77 -30q-14 -40 -55 -50h-120z" />
    <glyph glyph-name="ampersand" unicode="&#x26;" horiz-adv-x="560" 
d="M394 400l36 -40l-44 -40h-260l-36 40l44 40h260zM449 350l18 -20l-23 -230h-50l-27 30l16 160zM454 0h-390q-39 10 -45 50l83 30h320l54 -60zM21 70l26 260l22 20l54 -60l-19 -190zM354 600h-160l-77 30q14 40 55 50h220zM192 580l-11 -110l-66 -60l-18 20l18 180z
M361 470l13 130l38 80q39 -10 45 -50l-20 -200l-22 -20zM432 -20l-5 -50l-22 -20l-54 60l1 10h80z" />
    <glyph glyph-name="quotesingle" unicode="'" horiz-adv-x="180" 
d="M150 560l-44 -40l-36 40l16 160h80z" />
    <glyph glyph-name="parenleft" unicode="(" horiz-adv-x="350" 
d="M288 640h-110l-36 40l44 40h110l36 -40zM71 370l-18 20l23 230l55 50l27 -30l-21 -210zM268 40l-44 -40h-110l-36 40l44 40h110zM123 290l-21 -210l-33 -30l-45 50l23 230l22 20z" />
    <glyph glyph-name="parenright" unicode=")" horiz-adv-x="350" 
d="M62 80h110l36 -40l-44 -40h-110l-36 40zM279 350l18 -20l-23 -230l-55 -50l-27 30l21 210zM82 680l44 40h110l36 -40l-44 -40h-110zM227 430l21 210l33 30l45 -50l-23 -230l-22 -20z" />
    <glyph glyph-name="asterisk" unicode="*" horiz-adv-x="430" 
d="M183 430l8 80l44 40l36 -40l-8 -80l74 40l53 -15l-20 -55l-73 -40l65 -40l9 -55l-56 -15l-66 40l-8 -80l-44 -40l-36 40l8 80l-74 -40l-54 15l21 55l73 40l-65 40l-10 55l57 15z" />
    <glyph glyph-name="plus" unicode="+" horiz-adv-x="440" 
d="M184 400l9 90l44 40l36 -40l-9 -90h90l36 -40l-44 -40h-90l-9 -90l-44 -40l-36 40l9 90h-90l-36 40l44 40h90z" />
    <glyph glyph-name="comma" unicode="," horiz-adv-x="180" 
d="M86 -80l-44 -40l-36 40l16 160h80z" />
    <glyph glyph-name="hyphen" unicode="-" horiz-adv-x="440" 
d="M354 400l36 -40l-44 -40h-260l-36 40l44 40h260z" />
    <glyph glyph-name="period" unicode="." horiz-adv-x="180" 
d="M94 0h-80l8 80h80z" />
    <glyph glyph-name="slash" unicode="/" 
d="M283 478l143 242q60 0 76 -40l-185 -310h-45zM237 242l-143 -242q-60 0 -76 40l185 310h45z" />
    <glyph glyph-name="zero" unicode="0" 
d="M449 350l18 -20l-28 -280q-14 -40 -55 -50l-22 80l21 210zM364 0h-300q-39 10 -45 50l83 30h240zM21 70l26 260l22 20l54 -60l-19 -190zM398 640h-239l-77 30q14 40 55 50h299zM156 620l-19 -190l-66 -60l-18 20l26 260zM397 430l21 210l38 80q39 -10 45 -50l-28 -280
l-22 -20z" />
    <glyph glyph-name="one" unicode="1" horiz-adv-x="180" 
d="M109 350l18 -20l-28 -280q-14 -40 -55 -50l-22 80l21 210zM57 430l21 210l38 80q39 -10 45 -50l-28 -280l-22 -20z" />
    <glyph glyph-name="two" unicode="2" 
d="M394 400l36 -40l-44 -40h-260l-36 40l44 40h260zM394 0h-330q-39 10 -45 50l83 30h270zM21 70l26 260l22 20l54 -60l-19 -190zM398 640h-239l-77 30q14 40 55 50h299zM397 430l21 210l38 80q39 -10 45 -50l-28 -280l-22 -20z" />
    <glyph glyph-name="three" unicode="3" 
d="M394 400l36 -40l-44 -40h-260l-36 40l44 40h260zM449 350l18 -20l-28 -280q-14 -40 -55 -50l-22 80l21 210zM364 0h-300q-39 10 -45 50l83 30h240zM398 640h-239l-77 30q14 40 55 50h299zM397 430l21 210l38 80q39 -10 45 -50l-28 -280l-22 -20z" />
    <glyph glyph-name="four" unicode="4" 
d="M394 400l36 -40l-44 -40h-260l-36 40l44 40h260zM449 350l18 -20l-28 -280q-14 -40 -55 -50l-22 80l21 210zM159 650l-22 -220l-66 -60l-18 20l29 290zM397 430l21 210l38 80q39 -10 45 -50l-28 -280l-22 -20z" />
    <glyph glyph-name="five" unicode="5" 
d="M394 400l36 -40l-44 -40h-260l-36 40l44 40h260zM449 350l18 -20l-28 -280q-14 -40 -55 -50l-22 80l21 210zM364 0h-300q-39 10 -45 50l83 30h240zM428 640h-269l-77 30q14 40 55 50h329zM156 620l-19 -190l-66 -60l-18 20l26 260z" />
    <glyph glyph-name="six" unicode="6" 
d="M394 400l36 -40l-44 -40h-260l-36 40l44 40h260zM449 350l18 -20l-28 -280q-14 -40 -55 -50l-22 80l21 210zM364 0h-300q-39 10 -45 50l83 30h240zM21 70l26 260l22 20l54 -60l-19 -190zM428 640h-269l-77 30q14 40 55 50h329zM156 620l-19 -190l-66 -60l-18 20l26 260z
" />
    <glyph glyph-name="seven" unicode="7" 
d="M449 350l18 -20l-28 -280q-14 -40 -55 -50l-22 80l21 210zM398 640h-239l-77 30q14 40 55 50h299zM156 620l-19 -190l-66 -60l-18 20l26 260zM397 430l21 210l38 80q39 -10 45 -50l-28 -280l-22 -20z" />
    <glyph glyph-name="eight" unicode="8" 
d="M394 400l36 -40l-44 -40h-260l-36 40l44 40h260zM449 350l18 -20l-28 -280q-14 -40 -55 -50l-22 80l21 210zM364 0h-300q-39 10 -45 50l83 30h240zM21 70l26 260l22 20l54 -60l-19 -190zM398 640h-239l-77 30q14 40 55 50h299zM156 620l-19 -190l-66 -60l-18 20l26 260z
M397 430l21 210l38 80q39 -10 45 -50l-28 -280l-22 -20z" />
    <glyph glyph-name="nine" unicode="9" 
d="M394 400l36 -40l-44 -40h-260l-36 40l44 40h260zM449 350l18 -20l-28 -280q-14 -40 -55 -50l-22 80l21 210zM364 0h-300q-39 10 -45 50l83 30h240zM398 640h-239l-77 30q14 40 55 50h299zM156 620l-19 -190l-66 -60l-18 20l26 260zM397 430l21 210l38 80q39 -10 45 -50
l-28 -280l-22 -20z" />
    <glyph glyph-name="colon" unicode=":" horiz-adv-x="180" 
d="M109 160h-80l8 80h80zM142 480h-80l8 80h80z" />
    <glyph glyph-name="semicolon" unicode=";" horiz-adv-x="180" 
d="M142 480h-80l8 80h80zM86 -80l-44 -40l-36 40l16 160h80z" />
    <glyph glyph-name="less" unicode="&#x3c;" horiz-adv-x="370" 
d="M161 370h-110l220 200h40l26 -39zM303 189l-34 -39h-40l-180 200h110z" />
    <glyph glyph-name="equal" unicode="=" horiz-adv-x="440" 
d="M362 480l36 -40l-44 -40h-260l-36 40l44 40h260zM346 319l36 -40l-44 -40h-260l-36 40l44 40h260z" />
    <glyph glyph-name="greater" unicode="&#x3e;" horiz-adv-x="370" 
d="M67 531l34 39h40l180 -200h-110zM209 350h110l-220 -200h-40l-26 39z" />
    <glyph glyph-name="question" unicode="?" 
d="M394 400l36 -40l-44 -40h-260l-36 40l44 40h260zM30 160l17 170l22 20l54 -60l-13 -130h-80zM398 640h-239l-77 30q14 40 55 50h299zM397 430l21 210l38 80q39 -10 45 -50l-28 -280l-22 -20zM94 0h-80l8 80h80z" />
    <glyph glyph-name="at" unicode="@" 
d="M449 350l18 -20l-12 -120q-14 -40 -55 -50l-22 80l5 50zM364 0h-300q-39 10 -45 50l83 30h240zM21 70l26 260l22 20l54 -60l-19 -190zM398 640h-239l-77 30q14 40 55 50h299zM156 620l-19 -190l-66 -60l-18 20l26 260zM397 430l21 210l38 80q39 -10 45 -50l-28 -280
l-22 -20zM380 160l-140 -1q-39 10 -45 50l83 31h80zM197 230l10 100l22 20l54 -60l-3 -30zM300 460l-3 -30l-66 -60l-18 20l10 100zM382 480h-80l-77 31q14 40 55 50l110 -1z" />
    <glyph glyph-name="A" unicode="A" 
d="M394 400l36 -40l-44 -40h-260l-36 40l44 40h260zM449 350l18 -20l-28 -280q-14 -40 -55 -50l-22 80l21 210zM398 640h-239l-77 30q14 40 55 50h299zM156 620l-19 -190l-66 -60l-18 20l26 260zM397 430l21 210l38 80q39 -10 45 -50l-28 -280l-22 -20zM123 290l-21 -210
l-38 -80q-39 10 -45 50l28 280l22 20z" />
    <glyph glyph-name="B" unicode="B" 
d="M394 400l36 -40l-44 -40h-260l-36 40l44 40h260zM21 70l26 260l22 20l54 -60l-19 -190zM398 640h-240l-77 30l5 50h320l36 -40zM156 620l-19 -190l-66 -60l-18 20l26 260zM397 430l21 210l33 30l45 -50l-23 -230l-22 -20zM449 350l18 -20l-23 -230l-55 -50l-27 30l21 210
zM377 40l-44 -40h-319l5 50l83 30h239z" />
    <glyph glyph-name="C" unicode="C" horiz-adv-x="480" 
d="M394 0h-330q-39 10 -45 50l83 30h270zM21 70l26 260l22 20l54 -60l-19 -190zM428 640h-269l-77 30q14 40 55 50h329zM156 620l-19 -190l-66 -60l-18 20l26 260z" />
    <glyph glyph-name="D" unicode="D" 
d="M21 70l26 260l22 20l54 -60l-19 -190zM398 640h-240l-77 30l5 50h320l36 -40zM156 620l-19 -190l-66 -60l-18 20l26 260zM397 430l21 210l33 30l45 -50l-23 -230l-22 -20zM449 350l18 -20l-23 -230l-55 -50l-27 30l21 210zM377 40l-44 -40h-319l5 50l83 30h239z" />
    <glyph glyph-name="E" unicode="E" horiz-adv-x="480" 
d="M394 400l36 -40l-44 -40h-260l-36 40l44 40h260zM394 0h-330q-39 10 -45 50l83 30h270zM21 70l26 260l22 20l54 -60l-19 -190zM428 640h-269l-77 30q14 40 55 50h329zM156 620l-19 -190l-66 -60l-18 20l26 260z" />
    <glyph glyph-name="F" unicode="F" horiz-adv-x="480" 
d="M394 400l36 -40l-44 -40h-260l-36 40l44 40h260zM428 640h-269l-77 30q14 40 55 50h329zM156 620l-19 -190l-66 -60l-18 20l26 260zM123 290l-21 -210l-38 -80q-39 10 -45 50l28 280l22 20z" />
    <glyph glyph-name="G" unicode="G" 
d="M394 400l36 -40l-44 -40h-90l-36 40l44 40h90zM449 350l18 -20l-28 -280q-14 -40 -55 -50l-22 80l21 210zM364 0h-300q-39 10 -45 50l83 30h240zM21 70l26 260l22 20l54 -60l-19 -190zM428 640h-269l-77 30q14 40 55 50h329zM156 620l-19 -190l-66 -60l-18 20l26 260z
" />
    <glyph glyph-name="H" unicode="H" 
d="M394 400l36 -40l-44 -40h-260l-36 40l44 40h260zM449 350l18 -20l-28 -280q-14 -40 -55 -50l-22 80l21 210zM397 430l21 210l38 80q39 -10 45 -50l-28 -280l-22 -20zM123 290l-21 -210l-38 -80q-39 10 -45 50l28 280l22 20zM70 360l-18 20l28 280q14 40 55 50l22 -80
l-21 -210z" />
    <glyph glyph-name="I" unicode="I" horiz-adv-x="180" 
d="M57 430l21 210l38 80q39 -10 45 -50l-28 -280l-22 -20zM110 360l18 -20l-28 -280q-14 -40 -55 -50l-22 80l21 210z" />
    <glyph glyph-name="J" unicode="J" 
d="M449 350l18 -20l-28 -280q-14 -40 -55 -50l-22 80l21 210zM364 0h-300q-39 10 -45 50l83 30h240zM21 70l26 260l22 20l54 -60l-19 -190zM397 430l21 210l38 80q39 -10 45 -50l-28 -280l-22 -20z" />
    <glyph glyph-name="K" unicode="K" 
d="M394 400l36 -40l-44 -40h-260l-36 40l44 40h260zM449 350l18 -20l-28 -280q-14 -40 -55 -50l-22 80l21 210zM162 480l264 240q60 0 76 -40l-286 -260h-60zM123 290l-21 -210l-38 -80q-39 10 -45 50l28 280l22 20zM71 370l-18 20l28 280q14 40 55 50l22 -80l-21 -210z" />
    <glyph glyph-name="L" unicode="L" 
d="M123 290l-21 -210l-38 -80q-39 10 -45 50l28 280l22 20zM122 80h240l77 -30q-14 -40 -55 -50h-300zM71 370l-18 20l28 280q14 40 55 50l22 -80l-21 -210z" />
    <glyph glyph-name="M" unicode="M" 
d="M303 390l-44 -40l-36 40l23 230h80zM449 350l18 -20l-28 -280q-14 -40 -55 -50l-22 80l21 210zM398 640h-239l-77 30q14 40 55 50h299zM156 620l-19 -190l-66 -60l-18 20l26 260zM397 430l21 210l38 80q39 -10 45 -50l-28 -280l-22 -20zM123 290l-21 -210l-38 -80
q-39 10 -45 50l28 280l22 20z" />
    <glyph glyph-name="N" unicode="N" 
d="M123 290l-21 -210l-38 -80q-39 10 -45 50l28 280l22 20zM376 420h-70l-135 150l6 60h60l144 -160zM449 350l18 -20l-28 -280q-14 -40 -55 -50l-22 80l21 210zM396 420l21 210l38 80q39 -10 45 -50l-28 -280l-22 -20zM70 360l-18 20l28 280q14 40 55 50l22 -80l-21 -210z
" />
    <glyph glyph-name="O" unicode="O" 
d="M398 640h-220l-36 40l44 40h220l36 -40zM397 430l21 210l33 30l45 -50l-23 -230l-22 -20zM449 350l18 -20l-23 -230l-55 -50l-27 30l21 210zM71 370l-18 20l23 230l55 50l27 -30l-21 -210zM378 40l-44 -40h-220l-36 40l44 40h220zM123 290l-21 -210l-33 -30l-45 50
l23 230l22 20z" />
    <glyph glyph-name="P" unicode="P" 
d="M394 400l36 -40l-44 -40h-260l-36 40l44 40h260zM398 640h-240l-77 30l5 50h320l36 -40zM156 620l-19 -190l-66 -60l-18 20l26 260zM397 430l21 210l33 30l45 -50l-23 -230l-22 -20zM123 290l-21 -210l-38 -80q-39 10 -45 50l28 280l22 20z" />
    <glyph glyph-name="Q" unicode="Q" horiz-adv-x="530" 
d="M449 350l18 -20l-24 -240l-72 80l12 120zM344 0h-280q-39 10 -45 50l83 30h170zM21 70l26 260l22 20l54 -60l-19 -190zM398 640h-239l-77 30q14 40 55 50h299zM156 620l-19 -190l-66 -60l-18 20l26 260zM397 430l21 210l38 80q39 -10 45 -50l-28 -280l-22 -20zM272 180
h60l117 -130l-6 -60h-60l-117 130z" />
    <glyph glyph-name="R" unicode="R" 
d="M394 400l36 -40l-44 -40h-260l-36 40l44 40h260zM144 300h60l234 -260q-24 -40 -84 -40l-216 240zM123 290l-21 -210l-38 -80q-39 10 -45 50l28 280l22 20zM398 640h-239l-77 30q14 40 55 50h299zM397 430l21 210l38 80q39 -10 45 -50l-28 -280l-22 -20zM156 620
l-19 -190l-66 -60l-18 20l26 260z" />
    <glyph glyph-name="S" unicode="S" 
d="M394 400l36 -40l-44 -40h-260l-36 40l44 40h260zM449 350l18 -20l-28 -280q-14 -40 -55 -50l-22 80l21 210zM364 0h-300q-39 10 -45 50l83 30h240zM156 620l-19 -190l-66 -60l-18 20l26 260zM159 640l-77 30q14 40 55 50h319q39 -10 45 -50l-83 -30h-259z" />
    <glyph glyph-name="T" unicode="T" horiz-adv-x="519" 
d="M258 350l36 -40l-26 -260q-14 -40 -55 -50l-22 80l23 230zM224 410l21 210h80l-21 -210l-44 -40zM158 640l-77 30q14 40 55 50h319q39 -10 45 -50l-83 -30h-259z" />
    <glyph glyph-name="U" unicode="U" 
d="M449 350l18 -20l-28 -280q-14 -40 -55 -50l-22 80l21 210zM364 0h-300q-39 10 -45 50l83 30h240zM21 70l26 260l22 20l54 -60l-19 -190zM397 430l21 210l38 80q39 -10 45 -50l-28 -280l-22 -20zM70 360l-18 20l28 280q14 40 55 50l22 -80l-21 -210z" />
    <glyph glyph-name="V" unicode="V" 
d="M70 360l-18 20l28 280q14 40 55 50l22 -80l-21 -210zM396 420l21 210l38 80q39 -10 45 -50l-28 -280l-22 -20zM226 120l-12 -120l-174 260l6 60l22 20l54 -60zM382 280l66 60l18 -20l-6 -60l-226 -260l12 120z" />
    <glyph glyph-name="W" unicode="W" 
d="M274 100h-80l23 230l44 40l36 -40zM397 430l21 210l38 80q39 -10 45 -50l-28 -280l-22 -20zM364 0h-299q-39 10 -45 50l83 30h239zM21 70l26 260l22 20l54 -60l-19 -190zM449 350l18 -20l-28 -280q-14 -40 -55 -50l-22 80l21 210zM71 370l-18 20l28 280q14 40 55 50
l22 -80l-21 -210z" />
    <glyph glyph-name="X" unicode="X" 
d="M269 350h45l123 -310q-24 -40 -84 -40l-95 242zM283 478l143 242q60 0 76 -40l-185 -310h-45zM237 242l-143 -242q-60 0 -76 40l185 310h45zM251 370h-45l-123 310q24 40 84 40l95 -243z" />
    <glyph glyph-name="Y" unicode="Y" 
d="M394 400l36 -40l-44 -40h-260l-36 40l44 40h260zM449 350l18 -20l-28 -280q-14 -40 -55 -50l-22 80l21 210zM364 0h-300q-39 10 -45 50l83 30h240zM159 650l-22 -220l-66 -60l-18 20l29 290zM397 430l21 210l38 80q39 -10 45 -50l-28 -280l-22 -20z" />
    <glyph glyph-name="Z" unicode="Z" 
d="M394 0h-280l48 80h210zM358 640h-199l-77 30q14 40 55 50h269zM267 430l159 290q60 0 76 -40l-181 -310h-60zM263 290l-169 -290q-60 0 -76 40l191 310h60z" />
    <glyph glyph-name="bracketleft" unicode="[" horiz-adv-x="310" 
d="M21 70l26 260l22 20l54 -60l-19 -190zM228 640h-69l-77 30q14 40 55 50h139l18 -20zM156 620l-19 -190l-66 -60l-18 20l26 260zM226 20l-22 -20h-139q-39 10 -45 50l83 30h69z" />
    <glyph glyph-name="backslash" unicode="\" horiz-adv-x="518" 
d="M268 350h45l123 -310q-24 -40 -84 -40l-95 242zM250 370h-45l-123 310q24 40 84 40l95 -243z" />
    <glyph glyph-name="bracketright" unicode="]" horiz-adv-x="310" 
d="M239 350l18 -20l-28 -280q-14 -40 -55 -50l-22 80l21 210zM188 640h-50l-54 60l22 20h120zM187 430l21 210l38 80q39 -10 45 -50l-28 -280l-22 -20zM154 0h-120l-18 20l66 60h50z" />
    <glyph glyph-name="asciicircum" unicode="^" horiz-adv-x="519" 
d="M294 610l11 110l180 -200l-4 -40l-42 -30zM98 450l-36 30l4 40l220 200l-12 -110z" />
    <glyph glyph-name="underscore" unicode="_" horiz-adv-x="519" 
d="M361 80l77 -30q-14 -40 -55 -50h-319q-39 10 -45 50l83 30h259z" />
    <glyph glyph-name="grave" unicode="`" horiz-adv-x="280" 
d="M255 610l-4 -40l-41 -10l-126 140l14 40h40z" />
    <glyph glyph-name="a" unicode="a" 
d="M394 400l36 -40l-44 -40h-260l-36 40l44 40h260zM449 350l18 -20l-28 -280q-14 -40 -55 -50l-22 80l21 210zM398 640h-239l-77 30q14 40 55 50h299zM156 620l-19 -190l-66 -60l-18 20l26 260zM397 430l21 210l38 80q39 -10 45 -50l-28 -280l-22 -20zM123 290l-21 -210
l-38 -80q-39 10 -45 50l28 280l22 20z" />
    <glyph glyph-name="b" unicode="b" 
d="M394 400l36 -40l-44 -40h-260l-36 40l44 40h260zM21 70l26 260l22 20l54 -60l-19 -190zM398 640h-240l-77 30l5 50h320l36 -40zM156 620l-19 -190l-66 -60l-18 20l26 260zM397 430l21 210l33 30l45 -50l-23 -230l-22 -20zM449 350l18 -20l-23 -230l-55 -50l-27 30l21 210
zM377 40l-44 -40h-319l5 50l83 30h239z" />
    <glyph glyph-name="c" unicode="c" horiz-adv-x="480" 
d="M394 0h-330q-39 10 -45 50l83 30h270zM21 70l26 260l22 20l54 -60l-19 -190zM428 640h-269l-77 30q14 40 55 50h329zM156 620l-19 -190l-66 -60l-18 20l26 260z" />
    <glyph glyph-name="d" unicode="d" 
d="M21 70l26 260l22 20l54 -60l-19 -190zM398 640h-240l-77 30l5 50h320l36 -40zM156 620l-19 -190l-66 -60l-18 20l26 260zM397 430l21 210l33 30l45 -50l-23 -230l-22 -20zM449 350l18 -20l-23 -230l-55 -50l-27 30l21 210zM377 40l-44 -40h-319l5 50l83 30h239z" />
    <glyph glyph-name="e" unicode="e" horiz-adv-x="480" 
d="M394 400l36 -40l-44 -40h-260l-36 40l44 40h260zM394 0h-330q-39 10 -45 50l83 30h270zM21 70l26 260l22 20l54 -60l-19 -190zM428 640h-269l-77 30q14 40 55 50h329zM156 620l-19 -190l-66 -60l-18 20l26 260z" />
    <glyph glyph-name="f" unicode="f" horiz-adv-x="480" 
d="M394 400l36 -40l-44 -40h-260l-36 40l44 40h260zM428 640h-269l-77 30q14 40 55 50h329zM156 620l-19 -190l-66 -60l-18 20l26 260zM123 290l-21 -210l-38 -80q-39 10 -45 50l28 280l22 20z" />
    <glyph glyph-name="g" unicode="g" 
d="M394 400l36 -40l-44 -40h-90l-36 40l44 40h90zM449 350l18 -20l-28 -280q-14 -40 -55 -50l-22 80l21 210zM364 0h-300q-39 10 -45 50l83 30h240zM21 70l26 260l22 20l54 -60l-19 -190zM428 640h-269l-77 30q14 40 55 50h329zM156 620l-19 -190l-66 -60l-18 20l26 260z
" />
    <glyph glyph-name="h" unicode="h" 
d="M394 400l36 -40l-44 -40h-260l-36 40l44 40h260zM449 350l18 -20l-28 -280q-14 -40 -55 -50l-22 80l21 210zM397 430l21 210l38 80q39 -10 45 -50l-28 -280l-22 -20zM123 290l-21 -210l-38 -80q-39 10 -45 50l28 280l22 20zM70 360l-18 20l28 280q14 40 55 50l22 -80
l-21 -210z" />
    <glyph glyph-name="i" unicode="i" horiz-adv-x="180" 
d="M57 430l21 210l38 80q39 -10 45 -50l-28 -280l-22 -20zM110 360l18 -20l-28 -280q-14 -40 -55 -50l-22 80l21 210z" />
    <glyph glyph-name="j" unicode="j" 
d="M449 350l18 -20l-28 -280q-14 -40 -55 -50l-22 80l21 210zM364 0h-300q-39 10 -45 50l83 30h240zM21 70l26 260l22 20l54 -60l-19 -190zM397 430l21 210l38 80q39 -10 45 -50l-28 -280l-22 -20z" />
    <glyph glyph-name="k" unicode="k" 
d="M394 400l36 -40l-44 -40h-260l-36 40l44 40h260zM449 350l18 -20l-28 -280q-14 -40 -55 -50l-22 80l21 210zM162 480l264 240q60 0 76 -40l-286 -260h-60zM123 290l-21 -210l-38 -80q-39 10 -45 50l28 280l22 20zM71 370l-18 20l28 280q14 40 55 50l22 -80l-21 -210z" />
    <glyph glyph-name="l" unicode="l" 
d="M123 290l-21 -210l-38 -80q-39 10 -45 50l28 280l22 20zM122 80h240l77 -30q-14 -40 -55 -50h-300zM71 370l-18 20l28 280q14 40 55 50l22 -80l-21 -210z" />
    <glyph glyph-name="m" unicode="m" 
d="M303 390l-44 -40l-36 40l23 230h80zM449 350l18 -20l-28 -280q-14 -40 -55 -50l-22 80l21 210zM398 640h-239l-77 30q14 40 55 50h299zM156 620l-19 -190l-66 -60l-18 20l26 260zM397 430l21 210l38 80q39 -10 45 -50l-28 -280l-22 -20zM123 290l-21 -210l-38 -80
q-39 10 -45 50l28 280l22 20z" />
    <glyph glyph-name="n" unicode="n" 
d="M123 290l-21 -210l-38 -80q-39 10 -45 50l28 280l22 20zM376 420h-70l-135 150l6 60h60l144 -160zM449 350l18 -20l-28 -280q-14 -40 -55 -50l-22 80l21 210zM396 420l21 210l38 80q39 -10 45 -50l-28 -280l-22 -20zM70 360l-18 20l28 280q14 40 55 50l22 -80l-21 -210z
" />
    <glyph glyph-name="o" unicode="o" 
d="M398 640h-220l-36 40l44 40h220l36 -40zM397 430l21 210l33 30l45 -50l-23 -230l-22 -20zM449 350l18 -20l-23 -230l-55 -50l-27 30l21 210zM71 370l-18 20l23 230l55 50l27 -30l-21 -210zM378 40l-44 -40h-220l-36 40l44 40h220zM123 290l-21 -210l-33 -30l-45 50
l23 230l22 20z" />
    <glyph glyph-name="p" unicode="p" 
d="M394 400l36 -40l-44 -40h-260l-36 40l44 40h260zM398 640h-240l-77 30l5 50h320l36 -40zM156 620l-19 -190l-66 -60l-18 20l26 260zM397 430l21 210l33 30l45 -50l-23 -230l-22 -20zM123 290l-21 -210l-38 -80q-39 10 -45 50l28 280l22 20z" />
    <glyph glyph-name="q" unicode="q" horiz-adv-x="530" 
d="M449 350l18 -20l-24 -240l-72 80l12 120zM344 0h-280q-39 10 -45 50l83 30h170zM21 70l26 260l22 20l54 -60l-19 -190zM398 640h-239l-77 30q14 40 55 50h299zM156 620l-19 -190l-66 -60l-18 20l26 260zM397 430l21 210l38 80q39 -10 45 -50l-28 -280l-22 -20zM272 180
h60l117 -130l-6 -60h-60l-117 130z" />
    <glyph glyph-name="r" unicode="r" 
d="M394 400l36 -40l-44 -40h-260l-36 40l44 40h260zM144 300h60l234 -260q-24 -40 -84 -40l-216 240zM123 290l-21 -210l-38 -80q-39 10 -45 50l28 280l22 20zM398 640h-239l-77 30q14 40 55 50h299zM397 430l21 210l38 80q39 -10 45 -50l-28 -280l-22 -20zM156 620
l-19 -190l-66 -60l-18 20l26 260z" />
    <glyph glyph-name="s" unicode="s" 
d="M394 400l36 -40l-44 -40h-260l-36 40l44 40h260zM449 350l18 -20l-28 -280q-14 -40 -55 -50l-22 80l21 210zM364 0h-300q-39 10 -45 50l83 30h240zM156 620l-19 -190l-66 -60l-18 20l26 260zM159 640l-77 30q14 40 55 50h319q39 -10 45 -50l-83 -30h-259z" />
    <glyph glyph-name="t" unicode="t" horiz-adv-x="519" 
d="M258 350l36 -40l-26 -260q-14 -40 -55 -50l-22 80l23 230zM224 410l21 210h80l-21 -210l-44 -40zM158 640l-77 30q14 40 55 50h319q39 -10 45 -50l-83 -30h-259z" />
    <glyph glyph-name="u" unicode="u" 
d="M449 350l18 -20l-28 -280q-14 -40 -55 -50l-22 80l21 210zM364 0h-300q-39 10 -45 50l83 30h240zM21 70l26 260l22 20l54 -60l-19 -190zM397 430l21 210l38 80q39 -10 45 -50l-28 -280l-22 -20zM70 360l-18 20l28 280q14 40 55 50l22 -80l-21 -210z" />
    <glyph glyph-name="v" unicode="v" 
d="M70 360l-18 20l28 280q14 40 55 50l22 -80l-21 -210zM396 420l21 210l38 80q39 -10 45 -50l-28 -280l-22 -20zM226 120l-12 -120l-174 260l6 60l22 20l54 -60zM382 280l66 60l18 -20l-6 -60l-226 -260l12 120z" />
    <glyph glyph-name="w" unicode="w" 
d="M274 100h-80l23 230l44 40l36 -40zM397 430l21 210l38 80q39 -10 45 -50l-28 -280l-22 -20zM364 0h-299q-39 10 -45 50l83 30h239zM21 70l26 260l22 20l54 -60l-19 -190zM449 350l18 -20l-28 -280q-14 -40 -55 -50l-22 80l21 210zM71 370l-18 20l28 280q14 40 55 50
l22 -80l-21 -210z" />
    <glyph glyph-name="x" unicode="x" 
d="M269 350h45l123 -310q-24 -40 -84 -40l-95 242zM283 478l143 242q60 0 76 -40l-185 -310h-45zM237 242l-143 -242q-60 0 -76 40l185 310h45zM251 370h-45l-123 310q24 40 84 40l95 -243z" />
    <glyph glyph-name="y" unicode="y" 
d="M394 400l36 -40l-44 -40h-260l-36 40l44 40h260zM449 350l18 -20l-28 -280q-14 -40 -55 -50l-22 80l21 210zM364 0h-300q-39 10 -45 50l83 30h240zM159 650l-22 -220l-66 -60l-18 20l29 290zM397 430l21 210l38 80q39 -10 45 -50l-28 -280l-22 -20z" />
    <glyph glyph-name="z" unicode="z" 
d="M394 0h-280l48 80h210zM358 640h-199l-77 30q14 40 55 50h269zM267 430l159 290q60 0 76 -40l-181 -310h-60zM263 290l-169 -290q-60 0 -76 40l191 310h60z" />
    <glyph glyph-name="braceleft" unicode="{" horiz-adv-x="430" 
d="M141 70l22 220l66 60l18 -20l-23 -230zM348 640h-69l-77 30q14 40 55 50h139l18 -20zM276 620l-23 -230l-22 -20l-54 60l22 220zM346 20l-22 -20h-139q-39 10 -45 50l83 30h69zM164 400l36 -40l-44 -40h-70l-36 40l44 40h70z" />
    <glyph glyph-name="bar" unicode="|" horiz-adv-x="180" 
d="M99 50q-14 -40 -55 -50l-22 80l56 560l38 80q39 -10 45 -50z" />
    <glyph glyph-name="braceright" unicode="}" horiz-adv-x="430" 
d="M154 100l23 230l22 20l54 -60l-22 -220zM84 700l22 20h139q39 -10 45 -50l-83 -30h-69zM289 650l-22 -220l-66 -60l-18 20l23 230zM82 80h69l77 -30q-14 -40 -55 -50h-139l-18 20zM344 400l36 -40l-44 -40h-70l-36 40l44 40h70z" />
    <glyph glyph-name="asciitilde" unicode="~" horiz-adv-x="540" 
d="M302 480l36 -40l-44 -40h-40l-36 40l44 40h40zM142 479l36 -40l-44 -40h-40l-36 40l44 40h40zM462 480l36 -40l-44 -40h-40l-36 40l44 40h40zM228 540l36 -40l-44 -40h-40l-36 40l44 40h40zM375 410l36 -40l-44 -40h-40l-36 40l44 40h40z" />
    <glyph glyph-name="copyright" unicode="&#xa9;" horiz-adv-x="580" 
d="M424 0h-360q-39 10 -45 50l83 30h300zM458 640h-299l-77 30q14 40 55 50h359zM104 100l-83 -30l58 580l77 -30zM499 50q-14 -40 -55 -50l-22 80l56 560l38 80q39 -10 45 -50zM392 480h-130l-77 30q14 40 55 50h190zM260 460l-22 -220l-38 -80q-39 10 -45 50l28 280z
M258 240h60l77 -30q-14 -40 -55 -50h-120z" />
    <glyph glyph-name="endash" unicode="&#x2013;" horiz-adv-x="540" 
d="M454 400l36 -40l-44 -40h-360l-36 40l44 40h360z" />
    <glyph glyph-name="emdash" unicode="&#x2014;" horiz-adv-x="580" 
d="M494 400l36 -40l-44 -40h-400l-36 40l44 40h400z" />
    <glyph glyph-name="quoteleft" unicode="&#x2018;" horiz-adv-x="180" 
d="M146 520h-80l16 160l44 40l36 -40z" />
    <glyph glyph-name="quoteright" unicode="&#x2019;" horiz-adv-x="180" 
d="M150 560l-44 -40l-36 40l16 160h80z" />
    <glyph glyph-name="quotedblleft" unicode="&#x201c;" horiz-adv-x="340" 
d="M146 521h-80l16 160l44 40l36 -40zM306 520h-80l16 160l44 40l36 -40z" />
    <glyph glyph-name="quotedblright" unicode="&#x201d;" horiz-adv-x="341" 
d="M150 560l-44 -40l-36 40l16 160h80zM311 561l-44 -40l-36 40l16 160h80z" />
    <glyph glyph-name="bullet" unicode="&#x2022;" horiz-adv-x="390" 
d="M182 220q-60 0 -98.5 42.5t-32.5 102.5t53 102.5t107 42.5t98 -42.5t32 -102.5t-52.5 -102.5t-106.5 -42.5z" />
    <glyph glyph-name="perthousand" unicode="&#x2030;" horiz-adv-x="590" 
d="M283 399l-176 -159q-60 -1 -53 59l208 190h30zM168 640h-10l-77 30q14 40 55 50h70zM156 620l-6 -60l-38 -80q-39 10 -45 50l12 120zM170 560h10l77 -30q-14 -40 -55 -50h-70zM182 580l6 60l38 80q39 -10 45 -50l-12 -120zM420 160h-10l-77 30q14 40 55 50h70zM409 140
l-6 -60l-38 -80q-39 10 -45 50l12 120zM422 80h10l77 -30q-14 -40 -55 -50h-70zM434 100l6 60l38 80q39 -10 45 -50l-12 -120zM204 100l6 60l38 80q39 -10 45 -50l-12 -120zM192 79h10l77 -30q-14 -40 -55 -50h-70zM178 140l-6 -60l-38 -80q-39 10 -45 50l12 120zM190 160
h-10l-77 30q14 40 55 50h70zM307 531l176 159q60 1 53 -59l-208 -191l-30 1z" />
    <glyph glyph-name="NULL" horiz-adv-x="500" 
 />
  </font>
</defs>
</svg>
